<svg width="20" height="18" viewBox="0 0 20 18" fill="none" xmlns="http://www.w3.org/2000/svg">
<path fill-rule="evenodd" clip-rule="evenodd" d="M0 8.99999C0 8.66851 0.131682 8.3506 0.366076 8.11621C0.60047 7.88181 0.918377 7.75013 1.24986 7.75013H15.7307L10.3638 2.38573C10.1292 2.15104 9.9973 1.83273 9.9973 1.50083C9.9973 1.16893 10.1292 0.850618 10.3638 0.615928C10.5985 0.381238 10.9168 0.24939 11.2487 0.24939C11.5806 0.24939 11.899 0.381238 12.1336 0.615928L19.6328 8.11509C19.7492 8.23119 19.8415 8.36911 19.9046 8.52096C19.9676 8.67281 20 8.83559 20 8.99999C20 9.16439 19.9676 9.32718 19.9046 9.47902C19.8415 9.63087 19.7492 9.76879 19.6328 9.88489L12.1336 17.3841C11.899 17.6187 11.5806 17.7506 11.2487 17.7506C10.9168 17.7506 10.5985 17.6187 10.3638 17.3841C10.1292 17.1494 9.9973 16.8311 9.9973 16.4992C9.9973 16.1673 10.1292 15.8489 10.3638 15.6143L15.7307 10.2499H1.24986C0.918377 10.2499 0.60047 10.1182 0.366076 9.88378C0.131682 9.64938 0 9.33148 0 8.99999Z" fill="white"/>
</svg>
