<svg width="24" height="20" viewBox="0 0 24 20" fill="none" xmlns="http://www.w3.org/2000/svg">
<path fill-rule="evenodd" clip-rule="evenodd" d="M0 18.7272C0 18.4379 0.114935 18.1604 0.31952 17.9558C0.524105 17.7512 0.801582 17.6363 1.09091 17.6363H22.9091C23.1984 17.6363 23.4759 17.7512 23.6805 17.9558C23.8851 18.1604 24 18.4379 24 18.7272C24 19.0165 23.8851 19.294 23.6805 19.4986C23.4759 19.7032 23.1984 19.8181 22.9091 19.8181H1.09091C0.801582 19.8181 0.524105 19.7032 0.31952 19.4986C0.114935 19.294 0 19.0165 0 18.7272ZM0 9.99994C0 9.71062 0.114935 9.43314 0.31952 9.22856C0.524105 9.02397 0.801582 8.90904 1.09091 8.90904H22.9091C23.1984 8.90904 23.4759 9.02397 23.6805 9.22856C23.8851 9.43314 24 9.71062 24 9.99994C24 10.2893 23.8851 10.5667 23.6805 10.7713C23.4759 10.9759 23.1984 11.0909 22.9091 11.0909H1.09091C0.801582 11.0909 0.524105 10.9759 0.31952 10.7713C0.114935 10.5667 0 10.2893 0 9.99994ZM0 1.27267C0 0.983345 0.114935 0.705868 0.31952 0.501283C0.524105 0.296698 0.801582 0.181763 1.09091 0.181763H22.9091C23.1984 0.181763 23.4759 0.296698 23.6805 0.501283C23.8851 0.705868 24 0.983345 24 1.27267C24 1.562 23.8851 1.83948 23.6805 2.04406C23.4759 2.24865 23.1984 2.36358 22.9091 2.36358H1.09091C0.801582 2.36358 0.524105 2.24865 0.31952 2.04406C0.114935 1.83948 0 1.562 0 1.27267Z" fill="#424242"/>
</svg>
