<svg width="24" height="24" viewBox="0 0 24 24" fill="none" xmlns="http://www.w3.org/2000/svg">
<path d="M12.0005 4.87201L10.925 3.76651C8.40051 1.17151 3.77151 2.06701 2.10051 5.32951C1.31601 6.86401 1.13901 9.07951 2.57151 11.907C3.95151 14.6295 6.82251 17.8905 12.0005 21.4425C17.1785 17.8905 20.048 14.6295 21.4295 11.907C22.862 9.07801 22.6865 6.86401 21.9005 5.32951C20.2295 2.06701 15.6005 1.17001 13.076 3.76501L12.0005 4.87201ZM12.0005 23.25C-10.999 8.05201 4.91901 -3.80999 11.7365 2.46451C11.8265 2.54701 11.915 2.63251 12.0005 2.72101C12.0851 2.63259 12.1732 2.54753 12.2645 2.46601C19.0805 -3.81299 35 8.05051 12.0005 23.25Z" fill="black"/>
</svg>
