<svg width="40" height="40" viewBox="0 0 40 40" fill="none" xmlns="http://www.w3.org/2000/svg">
<g clip-path="url(#clip0_20_75)">
<path d="M20 4.02552e-06C15.3367 -0.00295338 10.819 1.62369 7.22802 4.59869C3.637 7.57368 1.19844 11.71 0.333968 16.2924C-0.530502 20.8749 0.23347 25.6153 2.49379 29.6942C4.75411 33.773 8.36867 36.9338 12.7125 38.63C12.5375 37.0475 12.3775 34.615 12.78 32.8875C13.145 31.325 15.125 22.945 15.125 22.945C15.125 22.945 14.5275 21.7475 14.5275 19.9775C14.5275 17.195 16.14 15.12 18.1475 15.12C19.8525 15.12 20.6775 16.4 20.6775 17.9375C20.6775 19.6525 19.585 22.2175 19.02 24.595C18.55 26.585 20.02 28.21 21.9825 28.21C25.5375 28.21 28.27 24.46 28.27 19.05C28.27 14.2625 24.8275 10.915 19.915 10.915C14.225 10.915 10.885 15.1825 10.885 19.5925C10.885 21.3125 11.5475 23.155 12.3725 24.1575C12.4435 24.2331 12.4938 24.3258 12.5183 24.4265C12.5429 24.5273 12.5408 24.6327 12.5125 24.7325C12.36 25.3625 12.0225 26.7225 11.9575 27C11.87 27.365 11.6675 27.4425 11.2875 27.2675C8.78749 26.105 7.22749 22.4525 7.22749 19.5175C7.22749 13.21 11.8125 7.4175 20.4425 7.4175C27.38 7.4175 32.7725 12.36 32.7725 18.9675C32.7725 25.86 28.425 31.4075 22.395 31.4075C20.3675 31.4075 18.4625 30.355 17.81 29.11L16.565 33.865C16.1125 35.6025 14.8925 37.78 14.0775 39.1075C16.8274 39.9578 19.7285 40.2044 22.5825 39.8307C25.4365 39.4569 28.1762 38.4715 30.6144 36.9418C33.0527 35.412 35.132 33.3741 36.7104 30.967C38.2887 28.56 39.3289 25.8406 39.7599 22.9947C40.1909 20.1488 40.0025 17.2433 39.2077 14.4769C38.4128 11.7104 37.0301 9.14816 35.1542 6.96509C33.2782 4.78202 30.9531 3.0296 28.3377 1.82754C25.7224 0.625479 22.8784 0.00210576 20 4.02552e-06Z" fill="white"/>
</g>
<defs>
<clipPath id="clip0_20_75">
<rect width="40" height="40" fill="white"/>
</clipPath>
</defs>
</svg>
