<svg width="24" height="24" viewBox="0 0 24 24" fill="none" xmlns="http://www.w3.org/2000/svg">
<path d="M17.6141 15.5144C19.0665 13.5325 19.7171 11.0752 19.4356 8.63417C19.154 6.19315 17.9612 3.94845 16.0957 2.34914C14.2303 0.749823 11.8297 -0.0861529 9.37436 0.00845683C6.91899 0.103067 4.58988 1.12128 2.853 2.8594C1.11613 4.59752 0.0995784 6.92736 0.00672566 9.38279C-0.0861271 11.8382 0.751567 14.2382 2.35221 16.1025C3.95286 17.9668 6.19842 19.158 8.63963 19.4378C11.0808 19.7176 13.5377 19.0653 15.5186 17.6114H15.5171C15.5621 17.6714 15.6101 17.7284 15.6641 17.7839L21.4391 23.5589C21.7204 23.8404 22.1019 23.9986 22.4998 23.9987C22.8977 23.9989 23.2794 23.841 23.5609 23.5597C23.8423 23.2784 24.0005 22.8969 24.0007 22.499C24.0008 22.1011 23.8429 21.7194 23.5616 21.4379L17.7866 15.6629C17.733 15.6087 17.6753 15.56 17.6141 15.5144ZM18.0011 9.74844C18.0011 10.8318 17.7877 11.9046 17.3731 12.9056C16.9585 13.9065 16.3508 14.816 15.5847 15.5821C14.8187 16.3482 13.9092 16.9558 12.9082 17.3704C11.9073 17.7851 10.8345 17.9984 9.7511 17.9984C8.6677 17.9984 7.5949 17.7851 6.59396 17.3704C5.59303 16.9558 4.68355 16.3482 3.91747 15.5821C3.15139 14.816 2.5437 13.9065 2.1291 12.9056C1.7145 11.9046 1.5011 10.8318 1.5011 9.74844C1.5011 7.56041 2.3703 5.46199 3.91747 3.91481C5.46465 2.36764 7.56307 1.49844 9.7511 1.49844C11.9391 1.49844 14.0376 2.36764 15.5847 3.91481C17.1319 5.46199 18.0011 7.56041 18.0011 9.74844Z" fill="black"/>
</svg>
